<svg xmlns="http://www.w3.org/2000/svg">

  <defs>

    <g id="logo-headphones"><!-- viewBox="0 0 200 200" -->
      <g>
        <path d="M172.6,99.6 C172.6,59.6 140,27 100,27 C60,27 27.4,59.6 27.4,99.6
          C27.4,118.1 34.4,135.8 47.1,149.3 L47.1,149.3 C48.8,151.1 51.6,151.2
          53.5,149.5 L61.3,142.1 C63.1,140.4 63.2,137.6 61.5,135.8 L61.5,135.8
          C52.3,126 47.2,113.1 47.2,99.7 C47.2,70.6 70.9,46.9 100,46.9 C129.1,46.9
          152.8,70.6 152.8,99.7 C152.8,113.2 147.7,126 138.5,135.8 L138.5,135.8
          C136.8,137.6 136.9,140.4 138.7,142.1 L146.5,149.5 C148.3,151.2 151.2,151.1
          152.9,149.3 L152.9,149.3 C165.6,135.7 172.6,118.1 172.6,99.6">
        </path>
        <g>
          <path d="M200,99.2 C200,89.3 198.5,79.6 195.6,70.2 L195.6,70.2 L195.6,70.2
            C194.8,67.9 192.3,66.6 190,67.3 L179.7,70.5 C177.3,71.2 176,73.7
            176.7,76.1 L176.7,76.1 C179,83.6 180.2,91.3 180.2,99.2 C180.2,113.2
            176.4,126.8 169.3,138.8 L169.3,138.8 C168,140.9 168.7,143.7 170.9,144.9
            L180.1,150.4 C182.2,151.7 185,151 186.3,148.9 C195.3,134
            200,116.8 200,99.2"/>
          <path d="M30.7,138.8 C23.6,126.9 19.8,113.2 19.8,99.2 C19.8,91.3 21,83.5
            23.3,76.1 L23.3,76.1 C24,73.7 22.7,71.2 20.3,70.5 L10,67.3 C7.6,66.6
            5.1,67.9 4.4,70.2 L4.4,70.2 C1.5,79.6 0,89.3 0,99.2 C0,116.8 4.8,134
            13.7,149 L13.7,149 C15,151.1 17.7,151.8 19.9,150.5 L29.1,145 C31.2,143.7
            31.9,140.9 30.7,138.8 L30.7,138.8 L30.7,138.8 Z"/>
        </g>
      </g>
    </g>

    <g id="logo-type"><!-- viewBox="0 0 935.5 200" -->
      <path d="M917.5,147c0.7,0,5.1-0.1,6.7-0.1h0c2.6,0.1,6.4,2,6.5,5.8v14.7c-0.3,1,0,4.6-6.2,5.1c-4.3,0-8.1,0-8.2,0
      	c-61.1,0-59-59.2-59-59.2V7.6c0-3.2,2.6-6,5.8-6H877c3.2,0,6,2.7,6,6v22.2h46.9c3.4,0,5.6,4,5.6,5.8v14.8c-0.1,2.6-3,5.3-5.6,5.3
      	c-1.5,0-38.7,0-46.9,0v56.5C883,112.4,881.1,147.1,917.5,147"/>
      <path d="M778.7,166.5c0,3.2-2.8,6-6,6h-13.8c-3.2,0-5.8-2.7-5.8-6V89.2c0,0-2.2-59.2,59-59.2c0.1,0,21.9,0,26.3,0
      	c6.3,0.5,5.9,4.1,6.2,5.1v14.7c-0.1,3.8-3.9,5.7-6.5,5.8h0c-1.6,0-24.1-0.1-24.8-0.1c-36.3-0.1-34.5,34.6-34.5,34.6V166.5z"/>
      <path d="M455.4,148.9c0.7,0,5.1-0.1,6.7-0.1h0c2.6,0.1,6.4,2,6.5,5.8v14.7c-0.3,1,0,4.6-6.2,5.1c-4.3,0-8.1,0-8.2,0
      	c-61.2,0-59-59.2-59-59.2V9.6c0-3.2,2.6-6,5.8-6h13.8c3.2,0,6,2.7,6,6v22.2h46.9c3.4,0,5.6,4,5.6,5.8v14.8c-0.1,2.6-3,5.3-5.6,5.3
      	c-1.5,0-38.7,0-46.9,0v56.5C421,114.3,419.1,149,455.4,148.9"/>
      <path d="M172.6,55.9l45.2-0.1c8.2,1,11.1,5.2,11.1,14.9v9.9c-0.6,7.3-1.3,14.9-14.9,14.9h-54.5V71
      	C159.8,56.8,166.9,56.3,172.6,55.9 M239,146.6c-0.2,0-64,0.1-64,0.1c-14.4,0-15.6-6-15.6-24.6v-0.8c8.4,0,33.8,0,54.9,0
      	c25.2-0.1,39.5-15.1,40.3-42.3l0-8.2c0-25.6-15.4-40.9-41.3-40.9h-26.8l-11.6,0c-26.5,0.2-39.9,14.1-40.9,42.6l-0.1,49.5
      	c0,25,4.9,50.5,41.3,50.5H239c4.5,0,7.1-2.4,7.1-6.6v-13.6C246,150.3,245.1,146.7,239,146.6"/>
      <path d="M700.1,146.6l-18.1,0.3h-22.7c-11.7,0-15.6-3.8-15.6-15.2V71c0.2-14.3,7.3-14.7,13-15.1l40.8-0.1
      	c14.4,0,15.6,6,15.6,24.5l0,51.1C713,145.7,705.8,146.2,700.1,146.6 M738.8,80.4c0-25-4.9-50.5-41.3-50.5h-38.6
      	C632.4,30.1,619,44,618,72.5v59.2c0,25.6,15.4,40.9,41.3,40.9h22.7v0h15.8c26.5-0.2,39.9-14.1,40.9-42.6V80.4z"/>
      <path d="M83.2,146.3l-18.1,0.1v0H41.8c-11.8,0-15.7-3.9-15.7-15.3L26,54.6h54.3c14.5,0,15.7,6,15.7,24.8l0.1,51.9
      	C95.9,145.5,89,145.9,83.2,146.3 M122,79.4c0-25.2-4.9-50.9-41.6-50.9H26V6c0-3.3-2.8-6-6-6H6C2.8,0,0,2.8,0,6v125.1
      	c0,25.8,15.7,41.2,41.8,41.2h27h12.2c26.5-0.2,39.9-14.1,40.9-42.6v-18.6v0V79.4z"/>
      <path d="M342.8,146.6l-44.5,0.1c-8.9-0.8-12-4.9-12-15v-9.9c0.6-7.3,1.3-14.9,14.9-14.9h54.5l0.2,24.6
      	C355.6,145.8,348.5,146.2,342.8,146.6 M381.4,102.9V80.4c0-25-4.9-50.5-41.3-50.5h-63.9c-4.5,0-7.1,2.4-7.1,6.6V50
      	c0,2.1,0.9,5.7,7,5.8c0.2,0,64-0.1,64-0.1c14.4,0,15.6,6,15.6,24.6l0,0.8c-8.4,0-33.8,0-54.9,0c-25.2,0.1-39.6,15.1-40.3,42.3l0,8.2
      	c0,25.6,15.4,40.9,41.3,40.9h22.8l0.1,0.1h15.8c26.5-0.2,39.9-14.1,40.9-42.6v-27.1H381.4z"/>
      <path d="M574.7,143.5c-2.4,2.3-6.3,3.5-12.2,3.5h-53.9l0-75.8c0-11.4,4.1-15.4,15.6-15.4h42.7
      	c3.5,0.5,6.1,1.5,7.8,3.2c3.4,3.5,3.4,9.8,3.3,17.1c0,0.4-0.1,49.2-0.1,50.3C578.1,133.7,578.1,140,574.7,143.5 M603.9,79.9
      	c0-25.9-5-50-41.3-50h-38.3c-25.9,0-41.3,15.4-41.3,41.2L482.8,194c0,3.7,1.8,6,4.8,6h15c3.2,0,6-2.8,6-6l0-21.6h53.9
      	c36.3,0,41.3-24,41.3-50v-11.2L603.9,79.9z"/>
    </g>

    <g id="logo-pro"><!-- viewBox="0 0 266 200" -->
  		<path d="M14.1,99.4l23.7,0.1c14.4,0.1,19.8-10,19.8-30.6c0-19.8-6.6-28.6-19.8-28.6H14.1V99.4z M1.5,173V30.1h35
      	c25.5,0,33.8,17.8,33.8,38.4c0,20.3-6.6,40.9-33.9,40.9H14.1V173H1.5z"/>
      <path d="M110.7,93.1h25.4c15.1,0,18.1-13.1,18.1-26.5c0-14.2-3.3-26.4-18.1-26.4h-25.4V93.1z M98.1,173V30.1h38.1
      	c24.8,0,30.6,17.1,30.6,36.9c0,14.6-4.2,28.9-19.9,34.6L169,173h-13.4l-20.8-69.7h-24V173H98.1z"/>
      <path d="M193.1,131.6V71.7c0-24.2,8.7-43.6,36.4-43.6S266,47.6,266,71.7v59.9c0,24-8.1,43.7-36.4,43.7S193.1,155.6,193.1,131.6z
      	 M253.4,134.4V68.9c0-16.9-5.2-30.6-23.8-30.6S205.7,52,205.7,68.9v65.5c0,16.9,5.2,30.7,23.8,30.7S253.4,151.3,253.4,134.4z"/>
    </g>

    <!-- all icons have viewBox of "0 0 200 200" -->

    <g id="icon-user">
      <path d="M148.8,165.2c-10.7-2.4-21.5-5.7-24.1-10.5c-1.4-2.7-3.7-5.5-3.4-12.3c14.6-11.9,22.1-20.6,23.3-37.7c3,0.1,4.3-0.7,6-2.7
	c3.8-4.4,5.6-31.6,0.1-32.9c-2-0.5-3.6,1.1-4.2,1.8c1.6-4.7,2.8-10,3.5-15.7c2.7-21.6-2.8-35.4-12.4-36.6c-0.2,0-0.4,0.1-0.6,0.1
	C133.5,7.9,118.1-0.1,99.8,0c-20,0.1-36.1,9.9-37.5,22.1c-5.7,5.5-9.7,12.4-9.7,25.7c0,7.7,1.4,14.8,3.6,20.5c0,0.6-0.1,1-0.1,1.6
	c0,0,0,0.1,0,0.1c0-0.9-0.7-2.2-2.7-2.5c-7.8-1.1-6.7,31.8-1.7,36.1c1.6,1.4,3.6,1.9,5.7,1.6c3.1,15.5,8.8,26,21.1,35.6
	c0.6,7.6,0.7,11.4-2.3,15.1c-3.3,4.1-15.3,7.5-25.1,9.3C4.3,173.5,1,200,1,200h98.3h0.6h0.1h0.6h98.3
	C198.8,200,196.2,176,148.8,165.2z"/>
    </g>

    <g id="icon-my-beatport">
  		<path fill-rule="evenodd" clip-rule="evenodd" d="M170.8,111.3c0-39-31.8-70.8-70.8-70.8c-39,0-70.8,31.8-70.8,70.8
			c0,18.1,6.8,35.3,19.2,48.4l0,0c1.7,1.8,4.4,1.8,6.2,0.2l7.6-7.2c1.8-1.7,1.8-4.4,0.2-6.2l0,0c-9-9.6-14-22.1-14-35.3
			c0-28.4,23.1-51.5,51.5-51.5s51.5,23.1,51.5,51.5c0,13.1-5,25.7-14,35.3l0,0c-1.6,1.8-1.5,4.5,0.2,6.2l7.6,7.2
			c1.8,1.7,4.5,1.6,6.2-0.2l0,0C164,146.5,170.8,129.3,170.8,111.3z"/>
		<path fill-rule="evenodd" clip-rule="evenodd" d="M195.7,82.6L195.7,82.6L195.7,82.6L195.7,82.6L195.7,82.6
			c-0.8-2.3-3.2-3.6-5.5-2.9l-10,3.1c-2.3,0.7-3.6,3.2-2.9,5.5h0c2.3,7.3,3.4,14.9,3.4,22.6c0,13.6-3.7,27-10.6,38.6l0,0
			c-1.2,2.1-0.6,4.8,1.5,6l9,5.4c2.1,1.2,4.8,0.6,6-1.5h0c8.8-14.6,13.4-31.4,13.4-48.5C200,101.3,198.5,91.7,195.7,82.6z"/>
		<path fill-rule="evenodd" clip-rule="evenodd" d="M29.9,149.5c-7-11.6-10.6-25-10.6-38.6c0-7.7,1.2-15.3,3.4-22.6l0,0v0l0,0
			c0.7-2.3-0.6-4.8-2.9-5.5l-10-3.1C7.5,79,5,80.3,4.3,82.6h0C1.4,91.7,0,101.2,0,110.9c0,17.1,4.6,33.9,13.4,48.5l0,0
			c1.3,2.1,3.9,2.7,6,1.5l9-5.4C30.4,154.3,31.1,151.6,29.9,149.5L29.9,149.5z"/>
		<path fill-rule="evenodd" clip-rule="evenodd" d="M100,98.1c-17.3-20-34.1-5.8-34.7,7.7C64.7,120.4,90,141,99.1,148.6
			c0.2,0.2,0.6,0.2,0.8,0.3c0.3,0,0.6-0.1,0.8-0.3c9.1-7.6,34.4-28.2,33.8-42.8C134.1,92.3,117.3,78.1,100,98.1z"/>
    </g>

    <g id="icon-cart">
      <path d="M78.4,156c-9.7,0-17.5,7.8-17.5,17.4c0,9.7,7.8,17.5,17.5,17.5c9.6,0,17.5-7.8,17.5-17.5C95.9,163.8,88,156,78.4,156z
			 M170,156c-9.6,0-17.5,7.8-17.5,17.4c0,9.7,7.8,17.5,17.5,17.5c9.6,0,17.5-7.8,17.5-17.5C187.5,163.8,179.6,156,170,156z M200,42
			H42L31.8,9.1H0l3.4,11.6h12.8l21.2,75.2l9,25.5c4.1,13,16.3,22.4,30.6,22.4h114.6v-18.2H77c-12.6,0.3-14.1-16.8-14.1-16.8
			l128.7-16.1L200,42z"/>
    </g>

    <g id="icon-in-cart">
  		<path d="M84.5,175.4c-6.8,0-12.3,5.5-12.3,12.3c0,6.8,5.5,12.3,12.3,12.3c6.8,0,12.3-5.5,12.3-12.3
  			C96.9,180.9,91.3,175.4,84.5,175.4z M149.1,175.4c-6.8,0-12.3,5.5-12.3,12.3c0,6.8,5.5,12.3,12.3,12.3c6.8,0,12.3-5.5,12.3-12.3
  			C161.4,180.9,155.9,175.4,149.1,175.4z M170.2,95H58.9l-7.2-23.2H29.3l2.4,8.2h9.1l15,53l6.3,18c2.9,9.1,11.5,15.8,21.5,15.8h80.8
  			v-12.9H83.6c-8.9,0.2-9.9-11.8-9.9-11.8l90.7-11.4L170.2,95z"/>
    	<polygon points="146,45.7 136.7,36 115.8,55.9 115.8,0 102.4,0 102.4,55.9 81.5,36 72.2,45.7 109.1,80.7 	"/>
    	<polygon points="136.7,36 136.7,36 136.7,36 	"/>
    </g>

    <g id="icon-search">
      <path d="M148.7,130.3l-4.1,4.1L130.9,121c11-12.8,17.7-29.5,17.7-47.7C148.7,32.8,115.9,0,75.4,0C34.9,0,2.1,32.8,2.1,73.3
    	c0,40.5,32.8,73.3,73.3,73.3c15.6,0,30.1-4.9,42-13.3l14.4,14.2l-4,4L177,200l20.9-21.2L148.7,130.3z M20.5,73.3
    	c0-30.3,24.6-54.9,54.9-54.9c30.3,0,54.9,24.6,54.9,54.9c0,30.3-24.6,54.9-54.9,54.9C45.1,128.2,20.5,103.6,20.5,73.3z"/>
    </g>

    <g id="icon-play">
      <polygon points="8.8,200 8.8,0 191.2,100 "/>
    </g>


    <g id="icon-replay">
       <path d="M 84.91,11.46 C 91.37,17.15 97.77,28.37 98.91,37.00 98.91,37.00 98.91,52.00 98.91,52.00 98.87,62.72 92.91,74.49 84.91,81.54 80.70,85.25 74.30,89.01 69.00,90.91 61.95,93.44 56.32,93.08 49.00,93.00 42.58,92.92 38.83,91.76 33.00,89.14 9.05,78.37 0.89,49.10 11.00,26.00 11.00,26.00 1.02,28.00 1.02,28.00 1.02,28.00 1.02,21.70 1.02,21.70 1.02,21.70 7.00,18.67 7.00,18.67 7.00,18.67 23.00,14.00 23.00,14.00 23.00,14.00 30.00,38.00 30.00,38.00 21.51,39.44 23.64,38.05 19.00,29.00 15.59,44.10 12.19,53.97 22.61,68.00 29.57,77.38 40.14,84.13 52.00,84.79 71.52,85.89 90.19,67.09 90.96,48.00 91.66,30.69 78.69,13.90 62.00,9.67 56.77,8.34 54.35,7.89 49.00,8.76 46.81,9.11 40.89,10.72 39.22,10.22 36.29,9.34 35.61,5.56 35.00,3.00 52.69,-2.79 70.49,-1.24 84.91,11.46 Z M 57.00,36.69 C 57.00,36.69 76.00,48.00 76.00,48.00 76.00,48.00 41.00,67.00 41.00,67.00 41.00,67.00 41.00,29.00 41.00,29.00 41.00,29.00 57.00,36.69 57.00,36.69 Z" />
    </g>

    <g id="icon-pause">
      <rect x="24.1" width="50.6" height="200"/>
      <rect x="125.3" width="50.6" height="200"/>
    </g>

    <g id="icon-prev">
      <polygon fill-rule="evenodd" clip-rule="evenodd" points="200,3.4 30.3,87 30.3,6.8 0,6.8 0,193.2 30.3,193.2 30.3,113 200,196.6"/>
    </g>

    <g id="icon-next">
      <polygon fill-rule="evenodd" clip-rule="evenodd" points="169.7,6.8 169.7,87 0,3.4 0,196.6 169.7,113 169.7,193.2 200,193.2
      200,6.8 "/>
    </g>

    <g id="icon-volume-on">
      <path d="M6.4,59.5v79.1h42.5l80.4,60.4V-1L48.9,59.5H6.4z"/>
    	<rect x="148.2" y="43.4" width="14.4" height="111.2"/>
    	<rect x="179.2" y="20.9" width="14.4" height="156.3"/>
    </g>

    <g id="icon-volume-off">
      <polygon points="129.9,94 174.8,58.9 164.1,45.3 129.9,72.1 129.9,-1 49.5,59.5 7,59.5 7,138.6 44.9,138.6 6.4,168.7 17.1,182.3
      61.5,147.6 129.9,199 "/>
    </g>

    <g id="icon-menu">
      <rect y="8.5" fill-rule="evenodd" clip-rule="evenodd" width="200" height="34"/>
      <path fill-rule="evenodd" clip-rule="evenodd" d="M200,8.5H0v34h200V8.5z M0,117h200V83.4H0V117z M0,191.5h200v-33.8H0V191.5z"/>
    </g>

    <g id="icon-queue">
      <path fill-rule="evenodd" clip-rule="evenodd" d="M200,21.9H55.4v29.2H200V21.9z M55.4,115.2H200V86.4H55.4V115.2z M55.4,178.9H200
      v-29H55.4V178.9z M28.5,21.9H0v29.2h28.5V21.9z M28.5,86.4H0v28.8h28.5V86.4z M0,179.1h28.5v-29H0V179.1z"/>
    </g>

    <g id="icon-add-queue">
      <path fill-rule="evenodd" clip-rule="evenodd" d="M175.6,116.9v-25h-22.4v25h-24.4v22.6h24.4v25h22.4v-25H200v-22.6H175.6z"/>
    	<path fill-rule="evenodd" clip-rule="evenodd" d="M156.1,38.2H43.3V61h112.8V38.2z M43.3,108.7h61.1V86.2H43.3V108.7z M43.3,160.8
    		h61.1v-22.6H43.3V160.8z M22.2,38.2H0V61h22.2V38.2z M22.2,86.2H0v22.5h22.2V86.2z M0,161h22.3v-22.7H0V161z"/>
    </g>

    <g id="icon-music">
      <path fill-rule="evenodd" clip-rule="evenodd" d="M124.8,3.8c-37.5,8.7-61.5,29.4-61.5,29.4v60.9v52.8c-6.3-2.2-13.7-2.8-21.3-1.2
    	c-18.5,3.9-31,19-27.9,33.8c3.1,14.7,20.7,23.5,39.2,19.6c16.4-3.5,28.1-15.8,28.3-28.8h0.1V79.4c10.5-7.1,25-15,43.1-19.8
    	c18.1-4.8,32.6-5.3,43.1-4.5v64.3c-6.3-2.2-13.7-2.8-21.3-1.2c-18.5,3.9-31,19.1-27.9,33.8c3.1,14.7,20.7,23.5,39.2,19.6
    	c16.1-3.4,27.6-15.3,28.3-28h0.1V58.4V5.2C186.3,5.2,165.1-5.5,124.8,3.8z"/>
    </g>

    <g id="icon-keyboard">
      <rect y="44.9" width="26" height="26"/>
    	<rect x="174" y="44.9" width="26" height="26"/>
    	<rect x="130.5" y="44.9" width="26" height="26"/>
    	<rect x="87" y="44.9" width="26" height="26"/>
    	<rect x="43.5" y="44.9" width="26" height="26"/>
    	<rect y="87" width="26" height="26"/>
    	<rect x="174" y="87" width="26" height="26"/>
    	<rect x="130.5" y="87" width="26" height="26"/>
    	<rect x="87" y="87" width="26" height="26"/>
    	<rect x="43.5" y="87" width="26" height="26"/>
    	<rect y="129.2" width="26" height="26"/>
    	<rect x="174" y="129.2" width="26" height="26"/>
    	<rect x="43.5" y="129.2" width="113" height="26"/>
    </g>

    <g id="icon-minus">
      <rect y="74.7" width="200" height="50.6"/>
    </g>

    <g id="icon-plus">
      <polygon points="200,74.7 125.3,74.7 125.3,0 74.7,0 74.7,74.7 0,74.7 0,125.3 74.7,125.3 74.7,200 125.3,200 125.3,125.3
      200,125.3 "/>
    </g>

    <g id="icon-chevron-down">
      <polygon points="0,65.2 100,165.2 200,65.2 172.5,37.7 100,110.3 27.5,37.7 0,65.2 	"/>
    </g>

    <g id="icon-share">
      <polygon points="129.6,73.1 129.6,88.9 157.7,88.8 157.7,184.2 42.3,184.2 42.3,90 70.7,90 70.7,74.2 70.7,74.2 26.5,74.2
    		26.5,200 173.5,200 173.5,73.1 	"/>
    	<polygon points="67.7,52.6 67.7,52.6 67.7,52.6 	"/>
    	<polygon points="92.1,29.4 92.1,143.5 107.9,143.5 107.9,29.1 132.6,52.6 143.5,41.2 100.1,0 56.8,41.1 67.7,52.6 	"/>
    </g>

    <g id="icon-facebook">
      <path id="f" d="M116.2,200v-91.1h31.1l4.4-35.6h-35.6V51.1c0-11.1,2.2-17.8,17.8-17.8h18.9V1.1C149.5,1.1,137.3,0,125,0
      C97.3,0,79.5,16.7,79.5,46.7v26.7H48.4v35.6h31.1V200H116.2z"/>
    </g>

    <g id="icon-twitter">
      <path d="M179.6,59.4c0,1.9,0,3.5,0,5.4c0,54.2-41.2,116.7-116.6,116.7c-23.1,0-44.9-5.1-63-16.7c3.2,0.5,6.4,0.7,9.8,0.7
  		c19.1,0,37-8.3,50.9-19.4c-17.8-0.2-33.1-12.3-38.2-28.5c2.5,0.5,5.1,0.8,7.6,0.8c3.7,0,7.4-0.5,10.9-1.5
  		C22.3,113.1,8.1,96.5,8.1,76.6c0-0.2,0-0.2,0-0.5c5.6,3,11.8,4.9,18.6,5.1c-11.1-7.4-18.4-19.9-18.4-34c0-7.6,2.1-13.9,5.6-19.9
  		c20.4,24.8,50.5,40.2,84.5,42.1c-0.7-2.9-0.9-6.2-0.9-9.5c0-22.7,18.3-40.9,40.9-40.9c11.8,0,22.5,5.1,30.2,12.9
  		c9.2-1.9,18.1-5.3,25.9-10c-3,9.6-9.5,17.7-18.1,22.8c8.4-1,16.2-3.2,23.6-6.5C194.4,46.5,187.5,53.7,179.6,59.4z"/>
    </g>

    <g id="icon-plus-circled">
      <path d="M100,0C44.8,0,0,44.8,0,100c0,55.2,44.8,100,100,100s100-44.8,100-100C200,44.8,155.2,0,100,0z M163.8,116.5h-47.6v47.6
    	H83.9v-47.6H36.2V84.3h47.6V36.7h32.3v47.6h47.6V116.5z"/>
    </g>

    <g id="icon-settings">
      <path d="M200,118V82h-33.3c-1.6-5.8-3.9-11.3-6.8-16.4l22-22l-25.5-25.5l-22,22c-5.1-2.9-10.6-5.2-16.4-6.8V0H82v33.3
    	c-5.8,1.6-11.3,3.9-16.4,6.8L45.3,19.8L19.8,45.3l20.3,20.3c-2.9,5.1-5.2,10.6-6.8,16.4H0v36h33.3c1.6,5.8,3.8,11.3,6.8,16.4l-22,22
    	l25.4,25.4l22-22c5.1,2.9,10.6,5.2,16.4,6.8V200h36v-33.3c5.8-1.6,11.3-3.9,16.4-6.8l20.3,20.3l25.5-25.5l-20.3-20.3
    	c2.9-5.1,5.2-10.6,6.8-16.4H200z M63.6,100c0-20.1,16.3-36.4,36.4-36.4s36.4,16.3,36.4,36.4s-16.3,36.4-36.4,36.4
    	S63.6,120.1,63.6,100z"/>
    </g>

    <g id="icon-move">
      <polygon points="162.5,0.1 129.4,0.1 129.4,16 162.5,16 162.5,183.6 129.4,183.6 129.4,199.4 188.8,199.4 188.8,199.4 198.4,199.4
    	198.4,0.1 162.5,0.1 "/>
    	<polygon points="89.4,56.2 77.9,67.1 101.4,91.8 1.6,91.8 1.6,107.7 101.4,107.7 77.9,132.4 89.4,143.3 130.8,99.8 	"/>
    	<polygon points="77.9,67.1 77.9,67.1 77.9,67.1 	"/>
    </g>

    <g id="icon-x">
      <polygon points="200,40.4 159.6,0 100,59.6 40.4,0 0,40.4 59.6,100 0,159.6 40.4,200 100,140.4 159.6,200 200,159.6 140.4,100 "/>
    </g>

    <g id="icon-star">
      <polygon points="149.7,124.2 200,76.3 130.3,66.9 101.2,6.2 72.3,66.6 0,76.3 53.2,126.9 41,193.1 101.7,160.4 162.3,193.1 "/>
    </g>

    <g id="icon-holdbin">
      <path d="M26.2,51.8V200h147.6V51.8H26.2z M115.7,100.5H84.3c-4.5,0-8.1-3.6-8.1-8.1c0-4.5,3.6-8.1,8.1-8.1h31.5
      	c4.5,0,8.1,3.6,8.1,8.1C123.9,96.9,120.2,100.5,115.7,100.5z"/>
      <rect x="47.5" y="25.8" width="105" height="13.7"/>
      <rect x="65.5" y="0" width="69" height="13.7"/>
    </g>

    <g id="icon-spinner">
      <rect x="145.6" y="87.5" opacity="0.25" width="54.4" height="20"/>
      <rect x="0" y="87.5" width="54.4" height="20"/>
      <rect x="90" y="145.6" opacity="0.75" width="20" height="54.4"/>
      <rect x="90" y="0" width="20" height="54.4"/>
      <rect x="125.2" y="139.7" transform="matrix(-0.7071 -0.7071 0.7071 -0.7071 154.2419 363.3197)" opacity="0.5" width="54.4" height="20"/>
      <rect x="22.2" y="36.7" transform="matrix(-0.7071 -0.7071 0.7071 -0.7071 51.2758 114.7375)" width="54.4" height="20"/>
      <rect x="20.4" y="141.5" transform="matrix(0.7071 -0.7071 0.7071 0.7071 -93.1633 78.05)" width="54.4" height="20"/>
    </g>

    <g id="icon-pointer-down">
      <polygon points="2.8,0 197.2,0 100,200 "/>
    </g>

    <g id="universal-nav-icon">
      <g>
        <rect fill-rule="evenodd" clip-rule="evenodd" fill="#FFFFFF" width="4.8" height="4.8"/>
        <rect x="7.5" fill-rule="evenodd" clip-rule="evenodd" fill="#FFFFFF" width="4.8" height="4.8"/>
        <rect x="15.1" fill-rule="evenodd" clip-rule="evenodd" fill="#FFFFFF" width="4.8" height="4.8"/>
      </g>
      <g>
        <rect y="14.9" fill-rule="evenodd" clip-rule="evenodd" fill="#FFFFFF" width="4.8" height="4.8"/>
        <rect x="7.5" y="14.9" fill-rule="evenodd" clip-rule="evenodd" fill="#FFFFFF" width="4.8" height="4.8"/>
        <rect x="15.1" y="14.9" fill-rule="evenodd" clip-rule="evenodd" fill="#FFFFFF" width="4.8" height="4.8"/>
      </g>
      <g>
        <rect x="15.1" y="7.4" fill-rule="evenodd" clip-rule="evenodd" fill="#FFFFFF" width="4.8" height="4.8"/>
        <rect y="7.4" fill-rule="evenodd" clip-rule="evenodd" fill="#FFFFFF" width="4.8" height="4.8"/>
        <rect x="7.5" y="7.4" fill-rule="evenodd" clip-rule="evenodd" fill="#FFFFFF" width="4.8" height="4.8"/>
      </g>
    </g>

  </defs>

</svg>
